<svg width="331" height="391" viewBox="0 0 331 391" fill="none" xmlns="http://www.w3.org/2000/svg">
<path d="M153.726 59.481L185.746 69.962V350.899L153.726 339.506V59.481Z" fill="white"/>
<path d="M0.973511 9.81006L32.9938 19.3797V296.899L0.973511 285.506V9.81006Z" fill="white"/>
<path d="M40.0801 0.240479L225.378 57.2025L192.045 66.7721L2.81067 6.62023L40.0801 0.240479Z" fill="white"/>
<path d="M225.378 57.2025V168.165L192.045 175.911V66.7721L225.378 57.2025Z" fill="white"/>
<path d="M225.378 168.165L254.773 176.823V195.506L193.298 175.62L225.378 168.165Z" fill="white"/>
<path d="M220.128 222.392V342.468L192.045 352.949V213.051L220.128 222.392Z" fill="white"/>
<path d="M60.8146 144.924V288.013L36.1432 298.038V137.405L60.8146 144.924Z" fill="white"/>
<path d="M59.7647 57.2025V118.038L36.9306 123.278V49.9114L59.7647 57.2025Z" fill="white"/>
<path d="M59.7647 118.038L116.456 136.494L96.2468 143.557L36.9306 123.278L59.7647 118.038Z" fill="white"/>
<path d="M1.49817 9.35437L185.746 69.5063V105.051L1.49817 44.2151V9.35437Z" fill="white"/>
<path d="M97.2967 145.608L116.981 138.772V164.519L97.2967 173.861V145.608Z" fill="white"/>
<path d="M191.782 179.329L254.248 198.696V232.874L191.782 213.279V179.329Z" fill="white"/>
<path d="M259.76 91.8356L292.83 100.038V391L259.76 378.241V91.8356Z" fill="white"/>
<path d="M295.455 80.671L330.362 89.5571L295.455 98.2153L259.76 89.5571L295.455 80.671Z" fill="white"/>
<path d="M297.292 100.038L330.362 91.8356V378.241L297.292 391V100.038Z" fill="white"/>
<path d="M36.143 125.785L93.3596 144.696V173.861L36.143 154.266V139.912V125.785Z" fill="white"/>
</svg>
